<svg width="768" height="384" viewBox="0 0 768 384" fill="none" xmlns="http://www.w3.org/2000/svg">
<path d="M184.936 216.59C182.34 216.59 180.078 216.098 178.151 215.115C176.263 214.132 174.788 212.716 173.726 210.867C172.703 208.979 172.192 206.757 172.192 204.2V184.73C172.192 182.134 172.703 179.912 173.726 178.063C174.788 176.214 176.263 174.798 178.151 173.815C180.078 172.832 182.34 172.34 184.936 172.34C187.532 172.34 189.774 172.851 191.662 173.874C193.55 174.857 195.005 176.273 196.028 178.122C197.051 179.971 197.562 182.173 197.562 184.73H192.252C192.252 182.291 191.603 180.423 190.305 179.125C189.046 177.788 187.257 177.119 184.936 177.119C182.615 177.119 180.786 177.768 179.449 179.066C178.151 180.364 177.502 182.232 177.502 184.671V204.2C177.502 206.639 178.151 208.527 179.449 209.864C180.786 211.162 182.615 211.811 184.936 211.811C187.257 211.811 189.046 211.162 190.305 209.864C191.603 208.527 192.252 206.639 192.252 204.2H197.562C197.562 206.717 197.051 208.92 196.028 210.808C195.005 212.657 193.55 214.092 191.662 215.115C189.774 216.098 187.532 216.59 184.936 216.59ZM208.572 216V211.162H217.363V177.768H208.572V172.93H231.582V177.768H222.791V211.162H231.582V216H208.572Z" fill="white"/>
<path d="M554.936 216.59C552.34 216.59 550.078 216.098 548.151 215.115C546.263 214.132 544.788 212.716 543.726 210.867C542.703 208.979 542.192 206.757 542.192 204.2V184.73C542.192 182.134 542.703 179.912 543.726 178.063C544.788 176.214 546.263 174.798 548.151 173.815C550.078 172.832 552.34 172.34 554.936 172.34C557.532 172.34 559.774 172.851 561.662 173.874C563.55 174.857 565.005 176.273 566.028 178.122C567.051 179.971 567.562 182.173 567.562 184.73H562.252C562.252 182.291 561.603 180.423 560.305 179.125C559.046 177.788 557.257 177.119 554.936 177.119C552.615 177.119 550.786 177.768 549.449 179.066C548.151 180.364 547.502 182.232 547.502 184.671V204.2C547.502 206.639 548.151 208.527 549.449 209.864C550.786 211.162 552.615 211.811 554.936 211.811C557.257 211.811 559.046 211.162 560.305 209.864C561.603 208.527 562.252 206.639 562.252 204.2H567.562C567.562 206.717 567.051 208.92 566.028 210.808C565.005 212.657 563.55 214.092 561.662 215.115C559.774 216.098 557.532 216.59 554.936 216.59ZM577.805 216V172.93H588.956C591.749 172.93 594.148 173.461 596.154 174.523C598.199 175.585 599.773 177.08 600.874 179.007C602.015 180.934 602.585 183.216 602.585 185.851V203.02C602.585 205.655 602.015 207.956 600.874 209.923C599.773 211.85 598.199 213.345 596.154 214.407C594.148 215.469 591.749 216 588.956 216H577.805ZM583.115 211.28H588.956C591.552 211.28 593.578 210.552 595.033 209.097C596.528 207.642 597.275 205.616 597.275 203.02V185.851C597.275 183.294 596.528 181.288 595.033 179.833C593.578 178.378 591.552 177.65 588.956 177.65H583.115V211.28Z" fill="white"/>
<path d="M69.8218 192C69.8218 159.595 82.6943 128.518 105.608 105.604C128.521 82.6909 159.598 69.8182 192.002 69.8182C234.032 69.8182 262.518 84.9688 286.256 108.672C311.599 134.051 331.113 168.716 353.49 208.966L354.677 211.06C375.622 248.832 399.465 291.735 432.418 324.689C467.606 359.878 513.267 384 575.998 384C608.156 384.001 639.799 375.924 668.022 360.511C696.246 345.099 720.147 322.844 737.53 295.789C754.913 268.734 765.223 237.746 767.513 205.67C769.802 173.593 763.998 141.455 750.634 112.206C737.269 82.9564 716.772 57.5323 691.023 38.2671C665.275 19.0019 635.1 6.51276 603.268 1.94594C571.436 -2.62087 538.967 0.880952 508.841 12.13C478.714 23.3791 451.896 42.015 430.847 66.3273C444.874 87.3345 457.943 108.965 470.015 131.153C480.701 112.546 496.099 97.0801 514.66 86.313C533.221 75.5459 554.29 69.8569 575.748 69.8184C597.206 69.7799 618.295 75.3933 636.895 86.0937C655.494 96.7942 670.947 112.204 681.7 130.774C692.453 149.343 698.125 170.417 698.147 191.875C698.169 213.333 692.54 234.418 681.825 253.01C671.11 271.601 655.689 287.043 637.111 297.781C618.534 308.52 597.456 314.176 575.998 314.182C534.003 314.182 505.482 299.031 481.744 275.328C456.401 249.949 436.887 215.284 414.51 175.034L413.323 172.94C392.378 135.168 368.535 92.2648 335.582 59.3106C300.394 24.1222 254.733 4.97242e-05 192.002 4.97242e-05C159.844 -0.000678665 128.201 8.07595 99.9776 23.4886C71.7539 38.9013 47.8534 61.1564 30.47 88.2111C13.0865 115.266 2.77684 146.254 0.487286 178.33C-1.80226 210.407 4.00162 242.545 17.3662 271.794C30.7309 301.044 51.2281 326.468 76.9766 345.733C102.725 364.998 132.9 377.487 164.732 382.054C196.564 386.621 229.033 383.119 259.159 371.87C289.286 360.621 316.104 341.985 337.152 317.673C323.126 296.665 310.057 275.035 297.985 252.847C284.586 276.207 263.844 294.485 238.984 304.841C214.125 315.197 186.54 317.049 160.52 310.11C134.499 303.17 111.5 287.829 95.0978 266.469C78.6958 245.11 69.81 218.93 69.8218 192Z" fill="url(#paint0_linear_19_109)"/>
<ellipse cx="324.5" cy="281.605" rx="23.7143" ry="48.1835" transform="rotate(-22.746 324.5 281.605)" fill="#D9D9D9"/>
<ellipse cx="445.5" cy="102.605" rx="23.7143" ry="48.1835" transform="rotate(-22.746 445.5 102.605)" fill="#D9D9D9"/>
<ellipse cx="442.947" cy="103.255" rx="20.4626" ry="41.5766" transform="rotate(-22.746 442.947 103.255)" fill="black"/>
<ellipse cx="323.947" cy="280.255" rx="20.4626" ry="41.5766" transform="rotate(-22.746 323.947 280.255)" fill="black"/>
<defs>
<linearGradient id="paint0_linear_19_109" x1="698.178" y1="79.7474" x2="66.498" y2="295.994" gradientUnits="userSpaceOnUse">
<stop stop-color="#7F81FF"/>
<stop offset="1" stop-color="#5FFF7F"/>
</linearGradient>
</defs>
</svg>
